<?xml version="1.0" encoding="utf-8"?>
<!-- Generator: Adobe Illustrator 16.0.3, SVG Export Plug-In . SVG Version: 6.00 Build 0)  -->
<!DOCTYPE svg PUBLIC "-//W3C//DTD SVG 1.0//EN" "http://www.w3.org/TR/2001/REC-SVG-20010904/DTD/svg10.dtd">
<svg version="1.0" id="Layer_1" xmlns="http://www.w3.org/2000/svg" xmlns:xlink="http://www.w3.org/1999/xlink" x="0px" y="0px"
	 width="366px" height="225.89px" viewBox="0 0 366 225.89" enable-background="new 0 0 366 225.89" xml:space="preserve">
<path fill="#BA4563" d="M173.132,61.735c38.333-29,78.333-49.667,106-38.333C263.137-4.963,208.465,17.402,173.132,61.735"/>
<path fill="#657AA4" d="M167.064,53.686c-0.266-56.284-118.592,1.13-91.133,48.724c26.533,45.992,166.449-13.008,220.199-45.008
	c-131.666,52-178.979,61.91-193.938,35.275C81.719,51.729,149.752,17.714,167.064,53.686"/>
<path fill="#FFFFFF" d="M26.733,203.756v-48.48c0-1.2-0.079-1.761-0.399-2.48h12.32c-0.32,0.72-0.4,1.2-0.4,2.48v45.44h13.36h2.399
	c0.4-0.08,0.641-0.16,1.281-0.319v5.76H26.334C26.654,205.517,26.733,204.956,26.733,203.756z"/>
<path fill="#FFFFFF" d="M97.135,162.795c-1.201-0.88-2.08-1.52-2.721-1.92c-3.36-2.08-7.76-3.36-11.6-3.36
	c-10.881,0-16.961,8.161-16.961,22.721c0,13.921,5.279,21.36,15.04,21.36c2.72,0,4.48-0.399,6.88-1.68v-20.561
	c0-1.28-0.08-1.6-0.479-2.399h11.841c-0.32,0.72-0.4,1.119-0.4,2.399v20.001c0,2.319,0.08,2.72,0.56,3.92
	c-1.68,0.56-2.88,0.96-3.76,1.28c-4.96,1.439-10.96,2.319-16.081,2.319c-16,0-25.68-10.24-25.68-27.12
	c0-17.041,10.641-27.681,27.84-27.681c3.36,0,6.801,0.399,10.16,1.2c1.841,0.399,2.801,0.72,5.361,1.6V162.795z"/>
<path fill="#FFFFFF" d="M140.856,148.986c-0.239,0.721-0.319,1.12-0.319,2.4v16.32c3.359-4,6.479-5.601,11.199-5.601
	c9.601,0,15.281,7.921,15.281,21.281c0,14.8-6.08,22.96-17.201,22.96c-3.279,0-6.48-0.88-8.8-2.399
	c-1.04-0.721-1.601-1.28-2.72-2.881l-0.561-0.64l-2.72,5.12h-5.601c0.32-0.72,0.4-1.04,0.4-2.4v-51.761c0-1.2-0.08-1.68-0.4-2.4
	H140.856z M140.697,193.228c0.399,4.24,3.6,7.521,7.359,7.521c5.52,0,8-5.12,8-16.48c0-11.12-2.32-15.921-7.68-15.921
	c-1.84,0-3.6,0.721-4.881,2c-2.799,2.96-3.119,4.32-3.119,12.881v0.96C140.377,188.428,140.537,191.468,140.697,193.228z"/>
<path fill="#FFFFFF" d="M182.937,183.787c0,0.641-0.08,1.12-0.08,1.36c0,10.561,4.56,16.48,12.56,16.48
	c2.641,0,5.281-0.641,7.681-1.84c1.601-0.801,2.479-1.44,4.479-3.12l1.361,6.319c-1.041,0.561-1.92,0.961-2.4,1.2
	c-3.68,1.601-8.24,2.48-12.721,2.48c-14,0-22-7.92-22-21.761c0-14.08,7.84-22.881,20.16-22.881c11.76,0,18.961,7.841,18.961,20.721
	v1.04H182.937z M199.576,178.987l-0.08-1.04c-0.64-7.601-3.119-11.04-7.84-11.04c-3.76,0-6.72,2.96-7.92,7.76
	c-0.32,1.36-0.48,2.24-0.641,4.32H199.576z"/>
<path fill="#FFFFFF" d="M217.256,165.467c1.359-0.56,2.399-0.96,3.039-1.28c3.921-1.359,8.08-2.08,12.32-2.08
	c6.48,0,10.881,1.761,13.121,5.28c0.88,1.36,1.359,3.601,1.359,6.32v21.44c0,3.521,0.48,4.561,2.08,4.561
	c0.801,0,1.76-0.48,2.881-1.28v5.521c-2.881,1.92-4.881,2.64-7.681,2.64c-1.36,0-2.64-0.24-3.84-0.72
	c-2.4-0.88-2.96-1.601-3.36-3.841l-0.16-1.119c-0.96,1.04-1.439,1.52-2.16,2.079c-2.8,2.32-6.32,3.601-9.76,3.601
	c-6.881,0-11.84-5.12-11.84-12.24c0-3.44,1.119-6.641,3.039-8.88c0.721-0.801,1.44-1.44,2.24-2c2.4-1.601,4.801-2.48,12.32-4.721
	c4.24-1.2,5.601-2.56,5.601-5.76c0-3.36-2.8-5.601-6.8-5.601c-1.761,0-4.48,0.641-6.48,1.521c-1.6,0.8-2.4,1.28-4.32,2.8
	L217.256,165.467z M235.256,181.627c-0.8,0.48-2.721,1.521-5.76,2.96c-4.641,2.24-6.16,4.24-6.16,8.24c0,3.921,2.4,6.721,5.84,6.721
	c4.24,0,7.28-3.28,7.28-8v-10.561C235.816,181.388,235.416,181.627,235.256,181.627z"/>
<path fill="#FFFFFF" d="M266.695,162.987c-0.32,0.56-0.4,1.199-0.4,2.399v25.841c0,1.92,0.16,3.04,0.4,3.84
	c0.801,2.32,3.44,4,6.32,4c4.561,0,7.68-3.439,7.68-8.56v-25.121c0-1.04-0.08-1.68-0.399-2.399h11.36
	c-0.24,0.8-0.24,1.119-0.24,2.479v37.681c0,1.2,0,1.521,0.32,2.4h-10.721v-5.28c-2.561,3.92-7.359,6.32-12.641,6.32
	c-8,0-12.8-4.8-12.8-12.96v-28.241c0-1.12,0-1.6-0.319-2.399H266.695z"/>
<path fill="#FFFFFF" d="M294.454,162.987h5.681v-7.12l11.04-1.28c-0.24,0.96-0.32,1.6-0.32,2.64v5.761h6.48v4.96h-6.48v28.881
	c0,2.399,0.88,3.439,2.88,3.439c1.12,0,2.32-0.399,3.521-1.2v5.36c-3.12,1.2-5.521,1.68-8.32,1.68c-5.681,0-8.8-2.72-8.8-7.92
	v-30.24h-5.681V162.987z"/>
<path fill="#FFFFFF" d="M331.094,162.987v0.319c0,0.561,0.08,1.04,0.48,2.08l8.8,25.521l10.24-25.521
	c0.48-1.2,0.561-1.68,0.561-2.399h6.48c-0.24,0.319-0.32,0.479-0.4,0.56c-0.32,0.4-0.64,1.04-0.96,1.84l-20.641,49.921
	c-0.48,1.12-0.56,1.681-0.56,2.24v0.16h-6.721c0.561-0.56,0.88-1.12,1.44-2.4l4.56-9.76l-14.32-40.161
	c-0.399-1.12-0.64-1.68-1.2-2.399H331.094z"/>
</svg>
