<?xml version="1.0" encoding="utf-8"?>
<!-- Generator: Adobe Illustrator 16.0.3, SVG Export Plug-In . SVG Version: 6.00 Build 0)  -->
<!DOCTYPE svg PUBLIC "-//W3C//DTD SVG 1.0//EN" "http://www.w3.org/TR/2001/REC-SVG-20010904/DTD/svg10.dtd">
<svg version="1.0" id="Layer_1" xmlns="http://www.w3.org/2000/svg" xmlns:xlink="http://www.w3.org/1999/xlink" x="0px" y="0px"
	 width="650px" height="131.89px" viewBox="0 0 650 131.89" enable-background="new 0 0 650 131.89" xml:space="preserve">
<path fill="#BA4563" d="M119.97,62.09c34.232-25.897,69.953-44.353,94.66-34.232C200.346,2.527,151.523,22.5,119.97,62.09"/>
<path fill="#657AA4" d="M114.552,54.901C114.315,4.639,8.648,55.911,33.169,98.413c23.695,41.072,148.642-11.616,196.642-40.193
	C112.23,104.657,69.98,113.506,56.621,89.721C38.337,53.155,99.092,22.778,114.552,54.901"/>
<path fill="#BA4563" d="M283.556,94.21v-48.48c0-1.2-0.079-1.761-0.399-2.48h12.32c-0.32,0.72-0.4,1.2-0.4,2.48v45.44h13.36h2.399
	c0.4-0.08,0.641-0.16,1.281-0.319v5.76h-28.961C283.477,95.971,283.556,95.41,283.556,94.21z"/>
<path fill="#BA4563" d="M353.957,53.249c-1.201-0.88-2.08-1.52-2.721-1.92c-3.36-2.08-7.76-3.36-11.6-3.36
	c-10.881,0-16.961,8.161-16.961,22.721c0,13.921,5.279,21.36,15.04,21.36c2.72,0,4.48-0.399,6.88-1.68V69.81
	c0-1.28-0.08-1.6-0.479-2.399h11.841c-0.32,0.72-0.4,1.119-0.4,2.399v20.001c0,2.319,0.08,2.72,0.56,3.92
	c-1.68,0.56-2.88,0.96-3.76,1.28c-4.96,1.439-10.96,2.319-16.081,2.319c-16,0-25.68-10.24-25.68-27.12
	c0-17.041,10.641-27.681,27.84-27.681c3.36,0,6.801,0.399,10.16,1.2c1.841,0.399,2.801,0.72,5.361,1.6V53.249z"/>
<path fill="#BA4563" d="M397.679,39.44c-0.239,0.721-0.319,1.12-0.319,2.4v16.32c3.359-4,6.479-5.601,11.199-5.601
	c9.601,0,15.281,7.921,15.281,21.281c0,14.8-6.08,22.96-17.201,22.96c-3.279,0-6.48-0.88-8.8-2.399
	c-1.04-0.721-1.601-1.28-2.72-2.881l-0.561-0.64l-2.72,5.12h-5.601c0.32-0.72,0.4-1.04,0.4-2.4V41.841c0-1.2-0.08-1.68-0.4-2.4
	H397.679z M397.52,83.682c0.399,4.24,3.6,7.521,7.359,7.521c5.52,0,8-5.12,8-16.48c0-11.12-2.32-15.921-7.68-15.921
	c-1.84,0-3.6,0.721-4.881,2c-2.799,2.96-3.119,4.32-3.119,12.881v0.96C397.199,78.882,397.359,81.922,397.52,83.682z"/>
<path fill="#BA4563" d="M439.759,74.241c0,0.641-0.08,1.12-0.08,1.36c0,10.561,4.56,16.48,12.56,16.48
	c2.641,0,5.281-0.641,7.681-1.84c1.601-0.801,2.479-1.44,4.479-3.12l1.361,6.319c-1.041,0.561-1.92,0.961-2.4,1.2
	c-3.68,1.601-8.24,2.48-12.721,2.48c-14,0-22-7.92-22-21.761c0-14.08,7.84-22.881,20.16-22.881c11.76,0,18.961,7.841,18.961,20.721
	v1.04H439.759z M456.398,69.441l-0.08-1.04c-0.64-7.601-3.119-11.04-7.84-11.04c-3.76,0-6.72,2.96-7.92,7.76
	c-0.32,1.36-0.48,2.24-0.641,4.32H456.398z"/>
<path fill="#BA4563" d="M474.078,55.921c1.359-0.56,2.399-0.96,3.039-1.28c3.921-1.359,8.08-2.08,12.32-2.08
	c6.48,0,10.881,1.761,13.121,5.28c0.88,1.36,1.359,3.601,1.359,6.32v21.44c0,3.521,0.48,4.561,2.08,4.561
	c0.801,0,1.76-0.48,2.881-1.28v5.521c-2.881,1.92-4.881,2.64-7.681,2.64c-1.36,0-2.64-0.24-3.84-0.72
	c-2.4-0.88-2.96-1.601-3.36-3.841l-0.16-1.119c-0.96,1.04-1.439,1.52-2.16,2.079c-2.8,2.32-6.32,3.601-9.76,3.601
	c-6.881,0-11.84-5.12-11.84-12.24c0-3.44,1.119-6.641,3.039-8.88c0.721-0.801,1.44-1.44,2.24-2c2.4-1.601,4.801-2.48,12.32-4.721
	c4.24-1.2,5.601-2.56,5.601-5.76c0-3.36-2.8-5.601-6.8-5.601c-1.761,0-4.48,0.641-6.48,1.521c-1.6,0.8-2.4,1.28-4.32,2.8
	L474.078,55.921z M492.078,72.081c-0.8,0.48-2.721,1.521-5.76,2.96c-4.641,2.24-6.16,4.24-6.16,8.24c0,3.921,2.4,6.721,5.84,6.721
	c4.24,0,7.28-3.28,7.28-8V71.441C492.639,71.842,492.238,72.081,492.078,72.081z"/>
<path fill="#BA4563" d="M523.518,53.441c-0.32,0.56-0.4,1.199-0.4,2.399v25.841c0,1.92,0.16,3.04,0.4,3.84c0.801,2.32,3.44,4,6.32,4
	c4.561,0,7.68-3.439,7.68-8.56V55.841c0-1.04-0.08-1.68-0.399-2.399h11.36c-0.24,0.8-0.24,1.119-0.24,2.479v37.681
	c0,1.2,0,1.521,0.32,2.4h-10.721v-5.28c-2.561,3.92-7.359,6.32-12.641,6.32c-8,0-12.8-4.8-12.8-12.96V55.841
	c0-1.12,0-1.6-0.319-2.399H523.518z"/>
<path fill="#BA4563" d="M551.276,53.441h5.681v-7.12l11.04-1.28c-0.24,0.96-0.32,1.6-0.32,2.64v5.761h6.48v4.96h-6.48v28.881
	c0,2.399,0.88,3.439,2.88,3.439c1.12,0,2.32-0.399,3.521-1.2v5.36c-3.12,1.2-5.521,1.68-8.32,1.68c-5.681,0-8.8-2.72-8.8-7.92
	v-30.24h-5.681V53.441z"/>
<path fill="#BA4563" d="M587.916,53.441v0.319c0,0.561,0.08,1.04,0.48,2.08l8.8,25.521l10.24-25.521
	c0.48-1.2,0.561-1.68,0.561-2.399h6.48c-0.24,0.319-0.32,0.479-0.4,0.56c-0.32,0.4-0.64,1.04-0.96,1.84l-20.641,49.921
	c-0.48,1.12-0.56,1.681-0.56,2.24v0.16h-6.721c0.561-0.56,0.88-1.12,1.44-2.4l4.56-9.76l-14.32-40.161
	c-0.399-1.12-0.64-1.68-1.2-2.399H587.916z"/>
</svg>
